<mxfile host="Electron" agent="Mozilla/5.0 (Windows NT 10.0; Win64; x64) AppleWebKit/537.36 (KHTML, like Gecko) draw.io/24.7.17 Chrome/128.0.6613.36 Electron/32.0.1 Safari/537.36" version="24.7.17">
  <diagram name="Страница — 1" id="CZUY3bqwYhvO--YWRkvL">
    <mxGraphModel dx="956" dy="460" grid="1" gridSize="10" guides="1" tooltips="1" connect="1" arrows="1" fold="1" page="1" pageScale="1" pageWidth="827" pageHeight="1169" math="0" shadow="0">
      <root>
        <mxCell id="0" />
        <mxCell id="1" parent="0" />
        <mxCell id="pIspESTbH8XGKYfGgG9r-1" value="controller" style="swimlane;whiteSpace=wrap;html=1;" parent="1" vertex="1">
          <mxGeometry x="294" y="60" width="196" height="1520" as="geometry" />
        </mxCell>
        <mxCell id="pIspESTbH8XGKYfGgG9r-2" value="viewer" style="swimlane;whiteSpace=wrap;html=1;" parent="pIspESTbH8XGKYfGgG9r-1" vertex="1">
          <mxGeometry x="-190" width="190" height="1520" as="geometry" />
        </mxCell>
        <mxCell id="pIspESTbH8XGKYfGgG9r-3" value="страница с авторизацией" style="rounded=0;whiteSpace=wrap;html=1;" parent="pIspESTbH8XGKYfGgG9r-2" vertex="1">
          <mxGeometry x="16" y="90" width="120" height="120" as="geometry" />
        </mxCell>
        <mxCell id="pIspESTbH8XGKYfGgG9r-4" value="" style="endArrow=classic;html=1;rounded=0;exitX=0;exitY=0.5;exitDx=0;exitDy=0;" parent="pIspESTbH8XGKYfGgG9r-2" edge="1">
          <mxGeometry width="50" height="50" relative="1" as="geometry">
            <mxPoint x="16" y="110" as="sourcePoint" />
            <mxPoint x="-84" y="110" as="targetPoint" />
          </mxGeometry>
        </mxCell>
        <mxCell id="pIspESTbH8XGKYfGgG9r-5" value="" style="endArrow=classic;html=1;rounded=0;entryX=0;entryY=0.433;entryDx=0;entryDy=0;entryPerimeter=0;" parent="pIspESTbH8XGKYfGgG9r-2" edge="1">
          <mxGeometry width="50" height="50" relative="1" as="geometry">
            <mxPoint x="-84" y="190.04000000000002" as="sourcePoint" />
            <mxPoint x="16" y="190.00000000000006" as="targetPoint" />
          </mxGeometry>
        </mxCell>
        <mxCell id="pIspESTbH8XGKYfGgG9r-6" value="вводимые данные&lt;div&gt;пользователем&lt;/div&gt;" style="edgeLabel;html=1;align=center;verticalAlign=middle;resizable=0;points=[];" parent="pIspESTbH8XGKYfGgG9r-5" vertex="1" connectable="0">
          <mxGeometry x="-0.1208" relative="1" as="geometry">
            <mxPoint x="-4" y="20" as="offset" />
          </mxGeometry>
        </mxCell>
        <mxCell id="pIspESTbH8XGKYfGgG9r-7" value="" style="endArrow=classic;html=1;rounded=0;exitX=0.014;exitY=0.371;exitDx=0;exitDy=0;exitPerimeter=0;" parent="pIspESTbH8XGKYfGgG9r-2" source="pIspESTbH8XGKYfGgG9r-28" edge="1">
          <mxGeometry width="50" height="50" relative="1" as="geometry">
            <mxPoint x="146.63" y="1180" as="sourcePoint" />
            <mxPoint x="-34" y="1130" as="targetPoint" />
          </mxGeometry>
        </mxCell>
        <mxCell id="pIspESTbH8XGKYfGgG9r-8" value="перенаправление в личный кабинет" style="edgeLabel;html=1;align=center;verticalAlign=middle;resizable=0;points=[];" parent="pIspESTbH8XGKYfGgG9r-7" vertex="1" connectable="0">
          <mxGeometry x="0.2395" y="-1" relative="1" as="geometry">
            <mxPoint x="36" y="-14" as="offset" />
          </mxGeometry>
        </mxCell>
        <mxCell id="pIspESTbH8XGKYfGgG9r-9" value="страница с авторизацией&lt;br&gt;с сообщением&lt;br&gt;об ошибке" style="rounded=0;whiteSpace=wrap;html=1;" parent="pIspESTbH8XGKYfGgG9r-2" vertex="1">
          <mxGeometry x="35" y="1390" width="120" height="60" as="geometry" />
        </mxCell>
        <mxCell id="pIspESTbH8XGKYfGgG9r-29" value="" style="endArrow=none;dashed=1;html=1;rounded=0;" parent="pIspESTbH8XGKYfGgG9r-2" edge="1">
          <mxGeometry width="50" height="50" relative="1" as="geometry">
            <mxPoint x="-50" y="1210" as="sourcePoint" />
            <mxPoint x="1246" y="1210" as="targetPoint" />
          </mxGeometry>
        </mxCell>
        <mxCell id="pIspESTbH8XGKYfGgG9r-25" value="" style="rounded=0;whiteSpace=wrap;html=1;" parent="pIspESTbH8XGKYfGgG9r-1" vertex="1">
          <mxGeometry x="38" y="60" width="120" height="60" as="geometry" />
        </mxCell>
        <mxCell id="pIspESTbH8XGKYfGgG9r-26" value="" style="endArrow=classic;html=1;rounded=0;entryX=1.028;entryY=0.13;entryDx=0;entryDy=0;exitX=0;exitY=0.75;exitDx=0;exitDy=0;entryPerimeter=0;" parent="pIspESTbH8XGKYfGgG9r-1" source="pIspESTbH8XGKYfGgG9r-25" target="pIspESTbH8XGKYfGgG9r-3" edge="1">
          <mxGeometry width="50" height="50" relative="1" as="geometry">
            <mxPoint x="21.799999999999955" y="105.64999999999998" as="sourcePoint" />
            <mxPoint x="106" y="160" as="targetPoint" />
          </mxGeometry>
        </mxCell>
        <mxCell id="pIspESTbH8XGKYfGgG9r-27" value="переадресация" style="edgeLabel;html=1;align=center;verticalAlign=middle;resizable=0;points=[];" parent="pIspESTbH8XGKYfGgG9r-26" vertex="1" connectable="0">
          <mxGeometry x="-0.4447" relative="1" as="geometry">
            <mxPoint x="-17" y="-15" as="offset" />
          </mxGeometry>
        </mxCell>
        <mxCell id="pIspESTbH8XGKYfGgG9r-28" value="" style="rounded=0;whiteSpace=wrap;html=1;" parent="pIspESTbH8XGKYfGgG9r-1" vertex="1">
          <mxGeometry x="46" y="1109" width="120" height="60" as="geometry" />
        </mxCell>
        <mxCell id="pIspESTbH8XGKYfGgG9r-30" value="&lt;font style=&quot;font-size: 14px;&quot;&gt;3.1&lt;/font&gt;" style="text;html=1;align=center;verticalAlign=middle;whiteSpace=wrap;rounded=0;" parent="pIspESTbH8XGKYfGgG9r-1" vertex="1">
          <mxGeometry x="-251.37" y="1180" width="60" height="30" as="geometry" />
        </mxCell>
        <mxCell id="pIspESTbH8XGKYfGgG9r-143" value="" style="rounded=0;whiteSpace=wrap;html=1;" parent="pIspESTbH8XGKYfGgG9r-1" vertex="1">
          <mxGeometry x="38" y="170" width="120" height="220" as="geometry" />
        </mxCell>
        <mxCell id="pIspESTbH8XGKYfGgG9r-44" value="принятие основным сервисом ответа от микро сервиса" style="rounded=0;whiteSpace=wrap;html=1;" parent="pIspESTbH8XGKYfGgG9r-1" vertex="1">
          <mxGeometry x="38" y="1390" width="120" height="60" as="geometry" />
        </mxCell>
        <mxCell id="pIspESTbH8XGKYfGgG9r-63" value="" style="endArrow=classic;html=1;rounded=0;exitX=0;exitY=0.5;exitDx=0;exitDy=0;entryX=1;entryY=0.5;entryDx=0;entryDy=0;" parent="pIspESTbH8XGKYfGgG9r-1" source="pIspESTbH8XGKYfGgG9r-44" target="pIspESTbH8XGKYfGgG9r-9" edge="1">
          <mxGeometry width="50" height="50" relative="1" as="geometry">
            <mxPoint x="49.629999999999995" y="1400" as="sourcePoint" />
            <mxPoint x="-23.370000000000005" y="1400" as="targetPoint" />
          </mxGeometry>
        </mxCell>
        <mxCell id="pIspESTbH8XGKYfGgG9r-64" value="добавление &lt;br&gt;сообщения&lt;br&gt;об ошибке&lt;br&gt;на страницу" style="edgeLabel;html=1;align=center;verticalAlign=middle;resizable=0;points=[];" parent="pIspESTbH8XGKYfGgG9r-63" vertex="1" connectable="0">
          <mxGeometry x="-0.4398" y="2" relative="1" as="geometry">
            <mxPoint x="-17" y="38" as="offset" />
          </mxGeometry>
        </mxCell>
        <mxCell id="pIspESTbH8XGKYfGgG9r-31" value="model" style="swimlane;whiteSpace=wrap;html=1;" parent="1" vertex="1">
          <mxGeometry x="490" y="60" width="203" height="1520" as="geometry" />
        </mxCell>
        <mxCell id="pIspESTbH8XGKYfGgG9r-38" value="создание сессии для внешнего пользователя" style="rounded=0;whiteSpace=wrap;html=1;" parent="pIspESTbH8XGKYfGgG9r-31" vertex="1">
          <mxGeometry x="41.5" y="1074" width="120" height="130" as="geometry" />
        </mxCell>
        <mxCell id="pIspESTbH8XGKYfGgG9r-11" value="создание токена для передачи его в микро-сервис" style="rounded=0;whiteSpace=wrap;html=1;" parent="pIspESTbH8XGKYfGgG9r-31" vertex="1">
          <mxGeometry x="46" y="320" width="124" height="80" as="geometry" />
        </mxCell>
        <mxCell id="pIspESTbH8XGKYfGgG9r-36" value="шифрование логина и пароля" style="rounded=0;whiteSpace=wrap;html=1;" parent="pIspESTbH8XGKYfGgG9r-31" vertex="1">
          <mxGeometry x="43" y="180" width="120" height="60" as="geometry" />
        </mxCell>
        <mxCell id="pIspESTbH8XGKYfGgG9r-146" value="" style="endArrow=classic;html=1;rounded=0;exitX=0.557;exitY=0.997;exitDx=0;exitDy=0;entryX=0.5;entryY=0;entryDx=0;entryDy=0;exitPerimeter=0;" parent="pIspESTbH8XGKYfGgG9r-31" source="pIspESTbH8XGKYfGgG9r-36" target="pIspESTbH8XGKYfGgG9r-11" edge="1">
          <mxGeometry width="50" height="50" relative="1" as="geometry">
            <mxPoint x="50" y="260" as="sourcePoint" />
            <mxPoint x="-38" y="230" as="targetPoint" />
          </mxGeometry>
        </mxCell>
        <mxCell id="pIspESTbH8XGKYfGgG9r-147" value="зашифрованный &lt;br&gt;логин&lt;br&gt;и пароль" style="edgeLabel;html=1;align=center;verticalAlign=middle;resizable=0;points=[];" parent="pIspESTbH8XGKYfGgG9r-146" vertex="1" connectable="0">
          <mxGeometry x="0.3431" relative="1" as="geometry">
            <mxPoint x="-1" y="-24" as="offset" />
          </mxGeometry>
        </mxCell>
        <mxCell id="pIspESTbH8XGKYfGgG9r-46" value="" style="endArrow=classic;html=1;rounded=0;entryX=0.009;entryY=0.078;entryDx=0;entryDy=0;entryPerimeter=0;" parent="1" target="pIspESTbH8XGKYfGgG9r-25" edge="1">
          <mxGeometry width="50" height="50" relative="1" as="geometry">
            <mxPoint x="10" y="125" as="sourcePoint" />
            <mxPoint x="324" y="125" as="targetPoint" />
          </mxGeometry>
        </mxCell>
        <mxCell id="pIspESTbH8XGKYfGgG9r-47" value="пользователь входит в систему с методом get" style="edgeLabel;html=1;align=center;verticalAlign=middle;resizable=0;points=[];" parent="pIspESTbH8XGKYfGgG9r-46" vertex="1" connectable="0">
          <mxGeometry x="0.3729" y="-1" relative="1" as="geometry">
            <mxPoint x="-66" y="-11" as="offset" />
          </mxGeometry>
        </mxCell>
        <mxCell id="pIspESTbH8XGKYfGgG9r-48" value="" style="endArrow=classic;html=1;rounded=0;" parent="1" edge="1">
          <mxGeometry width="50" height="50" relative="1" as="geometry">
            <mxPoint x="897" y="920.5" as="sourcePoint" />
            <mxPoint x="767" y="920" as="targetPoint" />
          </mxGeometry>
        </mxCell>
        <mxCell id="pIspESTbH8XGKYfGgG9r-49" value="передача запроса на выполение" style="edgeLabel;html=1;align=center;verticalAlign=middle;resizable=0;points=[];" parent="pIspESTbH8XGKYfGgG9r-48" vertex="1" connectable="0">
          <mxGeometry x="0.2622" y="1" relative="1" as="geometry">
            <mxPoint x="-5" y="-18" as="offset" />
          </mxGeometry>
        </mxCell>
        <mxCell id="pIspESTbH8XGKYfGgG9r-50" value="3.1" style="ellipse;whiteSpace=wrap;html=1;aspect=fixed;" parent="1" vertex="1">
          <mxGeometry x="736" y="940" width="29" height="30" as="geometry" />
        </mxCell>
        <mxCell id="pIspESTbH8XGKYfGgG9r-60" value="" style="endArrow=classic;html=1;rounded=0;exitX=0.009;exitY=0.428;exitDx=0;exitDy=0;exitPerimeter=0;entryX=0.967;entryY=0.352;entryDx=0;entryDy=0;entryPerimeter=0;" parent="1" source="pIspESTbH8XGKYfGgG9r-38" target="pIspESTbH8XGKYfGgG9r-28" edge="1">
          <mxGeometry width="50" height="50" relative="1" as="geometry">
            <mxPoint x="490.63" y="1200" as="sourcePoint" />
            <mxPoint x="540.63" y="1150" as="targetPoint" />
          </mxGeometry>
        </mxCell>
        <mxCell id="pIspESTbH8XGKYfGgG9r-110" value="external_model" style="swimlane;whiteSpace=wrap;html=1;" parent="1" vertex="1">
          <mxGeometry x="860" y="60" width="200" height="1530" as="geometry" />
        </mxCell>
        <mxCell id="pIspESTbH8XGKYfGgG9r-37" value="расшифровка токена" style="rounded=0;whiteSpace=wrap;html=1;" parent="pIspESTbH8XGKYfGgG9r-110" vertex="1">
          <mxGeometry x="39.5" y="480" width="120" height="120" as="geometry" />
        </mxCell>
        <mxCell id="pIspESTbH8XGKYfGgG9r-58" value="" style="endArrow=classic;html=1;rounded=0;" parent="pIspESTbH8XGKYfGgG9r-110" edge="1">
          <mxGeometry width="50" height="50" relative="1" as="geometry">
            <mxPoint x="160" y="570" as="sourcePoint" />
            <mxPoint x="260" y="570" as="targetPoint" />
          </mxGeometry>
        </mxCell>
        <mxCell id="pIspESTbH8XGKYfGgG9r-59" value="логин и &lt;br&gt;пароль" style="edgeLabel;html=1;align=center;verticalAlign=middle;resizable=0;points=[];" parent="pIspESTbH8XGKYfGgG9r-58" vertex="1" connectable="0">
          <mxGeometry x="0.4387" relative="1" as="geometry">
            <mxPoint x="-20" y="-20" as="offset" />
          </mxGeometry>
        </mxCell>
        <mxCell id="pIspESTbH8XGKYfGgG9r-16" value="принятие токена микро сервисом" style="rounded=0;whiteSpace=wrap;html=1;" parent="pIspESTbH8XGKYfGgG9r-110" vertex="1">
          <mxGeometry x="39.5" y="390" width="120" height="60" as="geometry" />
        </mxCell>
        <mxCell id="pIspESTbH8XGKYfGgG9r-148" value="" style="endArrow=classic;html=1;rounded=0;" parent="pIspESTbH8XGKYfGgG9r-110" edge="1">
          <mxGeometry width="50" height="50" relative="1" as="geometry">
            <mxPoint x="259.5" y="410" as="sourcePoint" />
            <mxPoint x="159.5" y="410" as="targetPoint" />
          </mxGeometry>
        </mxCell>
        <mxCell id="pIspESTbH8XGKYfGgG9r-149" value="токен" style="edgeLabel;html=1;align=center;verticalAlign=middle;resizable=0;points=[];" parent="pIspESTbH8XGKYfGgG9r-148" vertex="1" connectable="0">
          <mxGeometry x="-0.171" y="3" relative="1" as="geometry">
            <mxPoint x="-9" y="-13" as="offset" />
          </mxGeometry>
        </mxCell>
        <mxCell id="pIspESTbH8XGKYfGgG9r-152" value="поиск пользователя в ИС" style="rounded=0;whiteSpace=wrap;html=1;" parent="pIspESTbH8XGKYfGgG9r-110" vertex="1">
          <mxGeometry x="39.5" y="640" width="120" height="60" as="geometry" />
        </mxCell>
        <mxCell id="pIspESTbH8XGKYfGgG9r-32" value="вставка данных&lt;br&gt;в запрос с помощью&amp;nbsp;&lt;br&gt;provider" style="rounded=0;whiteSpace=wrap;html=1;" parent="pIspESTbH8XGKYfGgG9r-110" vertex="1">
          <mxGeometry x="39.5" y="730" width="120" height="60" as="geometry" />
        </mxCell>
        <mxCell id="pIspESTbH8XGKYfGgG9r-33" value="попытка подлючения&lt;br&gt;к БД" style="rounded=0;whiteSpace=wrap;html=1;" parent="pIspESTbH8XGKYfGgG9r-110" vertex="1">
          <mxGeometry x="39.5" y="830" width="120" height="60" as="geometry" />
        </mxCell>
        <mxCell id="pIspESTbH8XGKYfGgG9r-34" value="" style="endArrow=classic;html=1;rounded=0;exitX=0.5;exitY=1;exitDx=0;exitDy=0;" parent="pIspESTbH8XGKYfGgG9r-110" source="pIspESTbH8XGKYfGgG9r-32" target="pIspESTbH8XGKYfGgG9r-33" edge="1">
          <mxGeometry width="50" height="50" relative="1" as="geometry">
            <mxPoint x="-497" y="510" as="sourcePoint" />
            <mxPoint x="-447" y="460" as="targetPoint" />
          </mxGeometry>
        </mxCell>
        <mxCell id="pIspESTbH8XGKYfGgG9r-35" value="запрос и конфиг для подключения" style="edgeLabel;html=1;align=center;verticalAlign=middle;resizable=0;points=[];" parent="pIspESTbH8XGKYfGgG9r-34" vertex="1" connectable="0">
          <mxGeometry x="-0.1333" relative="1" as="geometry">
            <mxPoint y="-2" as="offset" />
          </mxGeometry>
        </mxCell>
        <mxCell id="pIspESTbH8XGKYfGgG9r-154" value="" style="endArrow=classic;html=1;rounded=0;exitX=0.5;exitY=1;exitDx=0;exitDy=0;entryX=0.5;entryY=0;entryDx=0;entryDy=0;" parent="pIspESTbH8XGKYfGgG9r-110" source="pIspESTbH8XGKYfGgG9r-152" target="pIspESTbH8XGKYfGgG9r-32" edge="1">
          <mxGeometry width="50" height="50" relative="1" as="geometry">
            <mxPoint x="-90" y="820" as="sourcePoint" />
            <mxPoint x="-40" y="770" as="targetPoint" />
          </mxGeometry>
        </mxCell>
        <mxCell id="pIspESTbH8XGKYfGgG9r-39" value="" style="rounded=0;whiteSpace=wrap;html=1;" parent="pIspESTbH8XGKYfGgG9r-110" vertex="1">
          <mxGeometry x="40" y="920" width="120" height="60" as="geometry" />
        </mxCell>
        <mxCell id="pIspESTbH8XGKYfGgG9r-45" value="" style="rounded=0;whiteSpace=wrap;html=1;" parent="pIspESTbH8XGKYfGgG9r-110" vertex="1">
          <mxGeometry x="30" y="1310" width="120" height="60" as="geometry" />
        </mxCell>
        <mxCell id="qJnenoMnHrsgOqhMzvlK-1" value="" style="endArrow=classic;html=1;rounded=0;exitX=0.5;exitY=1;exitDx=0;exitDy=0;entryX=0.5;entryY=0;entryDx=0;entryDy=0;" edge="1" parent="pIspESTbH8XGKYfGgG9r-110" source="pIspESTbH8XGKYfGgG9r-33" target="pIspESTbH8XGKYfGgG9r-39">
          <mxGeometry width="50" height="50" relative="1" as="geometry">
            <mxPoint x="160" y="760" as="sourcePoint" />
            <mxPoint x="210" y="710" as="targetPoint" />
          </mxGeometry>
        </mxCell>
        <mxCell id="qJnenoMnHrsgOqhMzvlK-2" value="данные из запроса" style="edgeLabel;html=1;align=center;verticalAlign=middle;resizable=0;points=[];" vertex="1" connectable="0" parent="qJnenoMnHrsgOqhMzvlK-1">
          <mxGeometry x="-0.3881" relative="1" as="geometry">
            <mxPoint x="3" y="2" as="offset" />
          </mxGeometry>
        </mxCell>
        <mxCell id="qJnenoMnHrsgOqhMzvlK-6" value="попытка подлючения&lt;br&gt;к БД" style="rounded=0;whiteSpace=wrap;html=1;" vertex="1" parent="pIspESTbH8XGKYfGgG9r-110">
          <mxGeometry x="30" y="1220" width="120" height="60" as="geometry" />
        </mxCell>
        <mxCell id="qJnenoMnHrsgOqhMzvlK-7" value="" style="endArrow=classic;html=1;rounded=0;exitX=0.5;exitY=1;exitDx=0;exitDy=0;entryX=0.5;entryY=0;entryDx=0;entryDy=0;" edge="1" parent="pIspESTbH8XGKYfGgG9r-110" source="qJnenoMnHrsgOqhMzvlK-6">
          <mxGeometry width="50" height="50" relative="1" as="geometry">
            <mxPoint x="150.5" y="1150" as="sourcePoint" />
            <mxPoint x="90.5" y="1310" as="targetPoint" />
          </mxGeometry>
        </mxCell>
        <mxCell id="qJnenoMnHrsgOqhMzvlK-8" value="данные из запроса" style="edgeLabel;html=1;align=center;verticalAlign=middle;resizable=0;points=[];" vertex="1" connectable="0" parent="qJnenoMnHrsgOqhMzvlK-7">
          <mxGeometry x="-0.3881" relative="1" as="geometry">
            <mxPoint y="1" as="offset" />
          </mxGeometry>
        </mxCell>
        <mxCell id="pIspESTbH8XGKYfGgG9r-125" value="external_controller" style="swimlane;whiteSpace=wrap;html=1;" parent="1" vertex="1">
          <mxGeometry x="1059" y="60" width="242" height="1530" as="geometry" />
        </mxCell>
        <mxCell id="pIspESTbH8XGKYfGgG9r-17" value="" style="endArrow=classic;html=1;rounded=0;entryX=1.007;entryY=0.301;entryDx=0;entryDy=0;entryPerimeter=0;" parent="pIspESTbH8XGKYfGgG9r-125" edge="1">
          <mxGeometry width="50" height="50" relative="1" as="geometry">
            <mxPoint x="61" y="516" as="sourcePoint" />
            <mxPoint x="-39.49999999999986" y="516.1200000000001" as="targetPoint" />
          </mxGeometry>
        </mxCell>
        <mxCell id="pIspESTbH8XGKYfGgG9r-18" value="токен с &lt;br&gt;логином &lt;br&gt;и паролем" style="edgeLabel;html=1;align=center;verticalAlign=middle;resizable=0;points=[];" parent="pIspESTbH8XGKYfGgG9r-17" vertex="1" connectable="0">
          <mxGeometry x="0.1917" relative="1" as="geometry">
            <mxPoint x="10" y="-24" as="offset" />
          </mxGeometry>
        </mxCell>
        <mxCell id="pIspESTbH8XGKYfGgG9r-19" value="сохранение логина и пароля в переменную" style="rounded=0;whiteSpace=wrap;html=1;" parent="pIspESTbH8XGKYfGgG9r-125" vertex="1">
          <mxGeometry x="62" y="540" width="120" height="120" as="geometry" />
        </mxCell>
        <mxCell id="pIspESTbH8XGKYfGgG9r-20" value="формирование положительного ответа основному сервису" style="rounded=0;whiteSpace=wrap;html=1;" parent="pIspESTbH8XGKYfGgG9r-125" vertex="1">
          <mxGeometry x="62" y="890" width="120" height="120" as="geometry" />
        </mxCell>
        <mxCell id="pIspESTbH8XGKYfGgG9r-43" value="формирование&amp;nbsp; отрицательного ответа основному сервису" style="rounded=0;whiteSpace=wrap;html=1;" parent="pIspESTbH8XGKYfGgG9r-125" vertex="1">
          <mxGeometry x="71" y="1300" width="120" height="140" as="geometry" />
        </mxCell>
        <mxCell id="qJnenoMnHrsgOqhMzvlK-5" value="" style="rounded=0;whiteSpace=wrap;html=1;" vertex="1" parent="pIspESTbH8XGKYfGgG9r-125">
          <mxGeometry x="62" y="360" width="120" height="90" as="geometry" />
        </mxCell>
        <mxCell id="pIspESTbH8XGKYfGgG9r-12" value="" style="endArrow=classic;html=1;rounded=0;exitX=0.992;exitY=0.85;exitDx=0;exitDy=0;exitPerimeter=0;" parent="1" source="pIspESTbH8XGKYfGgG9r-3" edge="1">
          <mxGeometry width="50" height="50" relative="1" as="geometry">
            <mxPoint x="350" y="270" as="sourcePoint" />
            <mxPoint x="330" y="252" as="targetPoint" />
          </mxGeometry>
        </mxCell>
        <mxCell id="pIspESTbH8XGKYfGgG9r-13" value="пароль и логин&lt;br&gt;пользователя &lt;br&gt;в метод post" style="edgeLabel;html=1;align=center;verticalAlign=middle;resizable=0;points=[];" parent="pIspESTbH8XGKYfGgG9r-12" vertex="1" connectable="0">
          <mxGeometry x="-0.3838" y="-2" relative="1" as="geometry">
            <mxPoint x="12" y="-24" as="offset" />
          </mxGeometry>
        </mxCell>
        <mxCell id="pIspESTbH8XGKYfGgG9r-142" value="&lt;font style=&quot;font-size: 14px;&quot;&gt;&lt;b&gt;database&lt;/b&gt;&lt;/font&gt;" style="text;html=1;align=center;verticalAlign=middle;whiteSpace=wrap;rounded=0;" parent="1" vertex="1">
          <mxGeometry x="736" y="30" width="60" height="30" as="geometry" />
        </mxCell>
        <mxCell id="pIspESTbH8XGKYfGgG9r-144" value="" style="endArrow=classic;html=1;rounded=0;exitX=0.975;exitY=0.137;exitDx=0;exitDy=0;exitPerimeter=0;entryX=0.014;entryY=0.343;entryDx=0;entryDy=0;entryPerimeter=0;" parent="1" source="pIspESTbH8XGKYfGgG9r-143" target="pIspESTbH8XGKYfGgG9r-36" edge="1">
          <mxGeometry width="50" height="50" relative="1" as="geometry">
            <mxPoint x="520" y="370" as="sourcePoint" />
            <mxPoint x="570" y="320" as="targetPoint" />
          </mxGeometry>
        </mxCell>
        <mxCell id="pIspESTbH8XGKYfGgG9r-145" value="логин и пароль" style="edgeLabel;html=1;align=center;verticalAlign=middle;resizable=0;points=[];" parent="pIspESTbH8XGKYfGgG9r-144" vertex="1" connectable="0">
          <mxGeometry x="0.2784" relative="1" as="geometry">
            <mxPoint x="-13" y="-10" as="offset" />
          </mxGeometry>
        </mxCell>
        <mxCell id="pIspESTbH8XGKYfGgG9r-14" value="" style="endArrow=classic;html=1;rounded=0;exitX=0.968;exitY=0.625;exitDx=0;exitDy=0;exitPerimeter=0;" parent="1" source="pIspESTbH8XGKYfGgG9r-11" edge="1">
          <mxGeometry width="50" height="50" relative="1" as="geometry">
            <mxPoint x="660" y="420" as="sourcePoint" />
            <mxPoint x="1120" y="430" as="targetPoint" />
          </mxGeometry>
        </mxCell>
        <mxCell id="pIspESTbH8XGKYfGgG9r-15" value="передача токена&amp;nbsp;" style="edgeLabel;html=1;align=center;verticalAlign=middle;resizable=0;points=[];" parent="pIspESTbH8XGKYfGgG9r-14" vertex="1" connectable="0">
          <mxGeometry x="-0.15" y="1" relative="1" as="geometry">
            <mxPoint x="-16" y="-19" as="offset" />
          </mxGeometry>
        </mxCell>
        <mxCell id="pIspESTbH8XGKYfGgG9r-151" value="" style="endArrow=classic;html=1;rounded=0;exitX=0.997;exitY=0.668;exitDx=0;exitDy=0;exitPerimeter=0;" parent="1" source="pIspESTbH8XGKYfGgG9r-16" edge="1">
          <mxGeometry width="50" height="50" relative="1" as="geometry">
            <mxPoint x="970" y="550" as="sourcePoint" />
            <mxPoint x="1120" y="490" as="targetPoint" />
          </mxGeometry>
        </mxCell>
        <mxCell id="pIspESTbH8XGKYfGgG9r-153" value="" style="endArrow=classic;html=1;rounded=0;entryX=1;entryY=0.25;entryDx=0;entryDy=0;exitX=0;exitY=0.953;exitDx=0;exitDy=0;exitPerimeter=0;" parent="1" source="pIspESTbH8XGKYfGgG9r-19" target="pIspESTbH8XGKYfGgG9r-152" edge="1">
          <mxGeometry width="50" height="50" relative="1" as="geometry">
            <mxPoint x="1020" y="750" as="sourcePoint" />
            <mxPoint x="1070" y="700" as="targetPoint" />
          </mxGeometry>
        </mxCell>
        <mxCell id="pIspESTbH8XGKYfGgG9r-53" value="" style="endArrow=classic;html=1;rounded=0;exitX=1.005;exitY=0.345;exitDx=0;exitDy=0;entryX=-0.008;entryY=0.417;entryDx=0;entryDy=0;entryPerimeter=0;exitPerimeter=0;" parent="1" source="pIspESTbH8XGKYfGgG9r-39" target="pIspESTbH8XGKYfGgG9r-20" edge="1">
          <mxGeometry width="50" height="50" relative="1" as="geometry">
            <mxPoint x="1181" y="1234" as="sourcePoint" />
            <mxPoint x="1113" y="1234" as="targetPoint" />
          </mxGeometry>
        </mxCell>
        <mxCell id="pIspESTbH8XGKYfGgG9r-54" value="логин &lt;br&gt;и пароль &lt;br&gt;в ИС" style="edgeLabel;html=1;align=center;verticalAlign=middle;resizable=0;points=[];" parent="pIspESTbH8XGKYfGgG9r-53" vertex="1" connectable="0">
          <mxGeometry x="-0.2443" relative="1" as="geometry">
            <mxPoint x="12" y="-25" as="offset" />
          </mxGeometry>
        </mxCell>
        <mxCell id="pIspESTbH8XGKYfGgG9r-155" value="" style="endArrow=classic;html=1;rounded=0;" parent="1" edge="1">
          <mxGeometry width="50" height="50" relative="1" as="geometry">
            <mxPoint x="750" y="1310" as="sourcePoint" />
            <mxPoint x="890" y="1310" as="targetPoint" />
          </mxGeometry>
        </mxCell>
        <mxCell id="pIspESTbH8XGKYfGgG9r-156" value="получение никаких данных&amp;nbsp;&lt;br&gt;от запроса" style="edgeLabel;html=1;align=center;verticalAlign=middle;resizable=0;points=[];" parent="pIspESTbH8XGKYfGgG9r-155" vertex="1" connectable="0">
          <mxGeometry x="-0.395" y="-2" relative="1" as="geometry">
            <mxPoint x="18" y="-22" as="offset" />
          </mxGeometry>
        </mxCell>
        <mxCell id="pIspESTbH8XGKYfGgG9r-157" value="" style="endArrow=classic;html=1;rounded=0;exitX=1;exitY=0.5;exitDx=0;exitDy=0;entryX=0.024;entryY=0.292;entryDx=0;entryDy=0;entryPerimeter=0;" parent="1" source="pIspESTbH8XGKYfGgG9r-45" target="pIspESTbH8XGKYfGgG9r-43" edge="1">
          <mxGeometry width="50" height="50" relative="1" as="geometry">
            <mxPoint x="960" y="1390" as="sourcePoint" />
            <mxPoint x="1010" y="1340" as="targetPoint" />
          </mxGeometry>
        </mxCell>
        <mxCell id="pIspESTbH8XGKYfGgG9r-51" value="" style="endArrow=classic;html=1;rounded=0;entryX=1;entryY=0.578;entryDx=0;entryDy=0;entryPerimeter=0;exitX=1;exitY=0.578;exitDx=0;exitDy=0;exitPerimeter=0;" parent="1" edge="1">
          <mxGeometry width="50" height="50" relative="1" as="geometry">
            <mxPoint x="766" y="940" as="sourcePoint" />
            <mxPoint x="900" y="940.3199999999999" as="targetPoint" />
          </mxGeometry>
        </mxCell>
        <mxCell id="pIspESTbH8XGKYfGgG9r-52" value="получение данных&lt;br&gt;от запроса" style="edgeLabel;html=1;align=center;verticalAlign=middle;resizable=0;points=[];" parent="pIspESTbH8XGKYfGgG9r-51" vertex="1" connectable="0">
          <mxGeometry x="-0.395" y="-2" relative="1" as="geometry">
            <mxPoint x="20" y="18" as="offset" />
          </mxGeometry>
        </mxCell>
        <mxCell id="qJnenoMnHrsgOqhMzvlK-3" value="" style="endArrow=classic;html=1;rounded=0;entryX=0.987;entryY=0.616;entryDx=0;entryDy=0;entryPerimeter=0;" edge="1" parent="1" target="pIspESTbH8XGKYfGgG9r-21">
          <mxGeometry width="50" height="50" relative="1" as="geometry">
            <mxPoint x="1120" y="1056" as="sourcePoint" />
            <mxPoint x="460" y="1056" as="targetPoint" />
          </mxGeometry>
        </mxCell>
        <mxCell id="qJnenoMnHrsgOqhMzvlK-4" value="передача ответа" style="edgeLabel;html=1;align=center;verticalAlign=middle;resizable=0;points=[];" vertex="1" connectable="0" parent="qJnenoMnHrsgOqhMzvlK-3">
          <mxGeometry x="-0.1476" y="-2" relative="1" as="geometry">
            <mxPoint x="-40" y="16" as="offset" />
          </mxGeometry>
        </mxCell>
        <mxCell id="pIspESTbH8XGKYfGgG9r-21" value="принятие основным сервисом ответа от микро сервиса" style="rounded=0;whiteSpace=wrap;html=1;" parent="1" vertex="1">
          <mxGeometry x="531.5" y="1000" width="120" height="90" as="geometry" />
        </mxCell>
        <mxCell id="pIspESTbH8XGKYfGgG9r-24" value="id внутри ИС и конфиг" style="endArrow=classic;html=1;rounded=0;entryX=0.5;entryY=0;entryDx=0;entryDy=0;exitX=0.5;exitY=1;exitDx=0;exitDy=0;" parent="1" source="pIspESTbH8XGKYfGgG9r-21" target="pIspESTbH8XGKYfGgG9r-38" edge="1">
          <mxGeometry x="-0.0909" y="-1" width="50" height="50" relative="1" as="geometry">
            <mxPoint x="480" y="1150" as="sourcePoint" />
            <mxPoint x="520.63" y="1110" as="targetPoint" />
            <mxPoint as="offset" />
          </mxGeometry>
        </mxCell>
        <mxCell id="pIspESTbH8XGKYfGgG9r-40" value="" style="endArrow=classic;html=1;rounded=0;exitX=-0.009;exitY=0.848;exitDx=0;exitDy=0;exitPerimeter=0;entryX=1;entryY=0.5;entryDx=0;entryDy=0;" parent="1" source="pIspESTbH8XGKYfGgG9r-43" edge="1" target="pIspESTbH8XGKYfGgG9r-44">
          <mxGeometry width="50" height="50" relative="1" as="geometry">
            <mxPoint x="1117.48" y="1398.64" as="sourcePoint" />
            <mxPoint x="460" y="1390" as="targetPoint" />
          </mxGeometry>
        </mxCell>
        <mxCell id="pIspESTbH8XGKYfGgG9r-41" value="передача ответа" style="edgeLabel;html=1;align=center;verticalAlign=middle;resizable=0;points=[];" parent="pIspESTbH8XGKYfGgG9r-40" vertex="1" connectable="0">
          <mxGeometry x="-0.2429" relative="1" as="geometry">
            <mxPoint x="-40" y="-13" as="offset" />
          </mxGeometry>
        </mxCell>
      </root>
    </mxGraphModel>
  </diagram>
</mxfile>
